<svg xmlns="http://www.w3.org/2000/svg" viewBox="0 0 400 267" width="400" height="267" preserveAspectRatio="xMidYMid slice">
<defs><linearGradient id="s" x1="0" y1="0" x2="0" y2="1"><stop offset="0" stop-color="hsl(233 70% 72%)"/><stop offset="0.7" stop-color="hsl(263 80% 88%)"/></linearGradient>
<radialGradient id="g"><stop offset="0" stop-color="hsl(273 100% 96%)"/><stop offset="1" stop-color="hsl(273 100% 96%)" stop-opacity="0"/></radialGradient></defs>
<rect width="400" height="267" fill="url(#s)"/><circle cx="150.74341665953398" cy="85.81906061365501" r="58.74" fill="url(#g)"/><circle cx="150.74341665953398" cy="85.81906061365501" r="16.02" fill="hsl(273 100% 97%)"/><path d="M0,267 L0.0,160.0 L57.1,136.7 L114.3,163.8 L171.4,130.8 L228.6,149.2 L285.7,136.5 L342.9,139.4 L400.0,142.7 L400,267 Z" fill="hsl(63 30% 62%)"/><path d="M0,267 L0.0,181.6 L40.0,162.2 L80.0,181.2 L120.0,193.7 L160.0,174.3 L200.0,196.6 L240.0,157.4 L280.0,165.6 L320.0,180.2 L360.0,158.2 L400.0,169.7 L400,267 Z" fill="hsl(71 36% 50%)"/><path d="M0,267 L0.0,194.9 L30.8,206.9 L61.5,202.5 L92.3,215.6 L123.1,201.6 L153.8,224.3 L184.6,217.1 L215.4,221.3 L246.2,215.6 L276.9,219.3 L307.7,215.8 L338.5,221.9 L369.2,205.7 L400.0,209.4 L400,267 Z" fill="hsl(79 42% 38%)"/><path d="M0,267 L0.0,227.1 L25.0,246.2 L50.0,253.0 L75.0,229.9 L100.0,226.4 L125.0,252.2 L150.0,240.2 L175.0,231.9 L200.0,239.8 L225.0,230.7 L250.0,235.6 L275.0,251.1 L300.0,228.0 L325.0,231.1 L350.0,240.3 L375.0,247.5 L400.0,226.3 L400,267 Z" fill="hsl(87 48% 26%)"/></svg>
